HIERARCHY
ROOT root
{
	OFFSET 0.000000 0.000000 0.000000
	CHANNELS 6 Xposition Yposition Zposition Zrotation Yrotation Xrotation
	JOINT lhip
	{
		OFFSET 0.058581 -0.082280 -0.017664
		CHANNELS 3 Zrotation Yrotation Xrotation
		JOINT lknee
		{
			OFFSET 0.043451 -0.386469 0.008037
			CHANNELS 3 Zrotation Yrotation Xrotation
			JOINT lankle
			{
				OFFSET -0.014790 -0.426874 -0.037428
				CHANNELS 3 Zrotation Yrotation Xrotation
				JOINT ltoe
				{
					OFFSET 0.041054 -0.060286 0.122042
					CHANNELS 3 Zrotation Yrotation Xrotation
					End Site
					{
						OFFSET 0.000000 0.000000 0.000000
					}
				}
			}
		}
	}
	JOINT rhip
	{
		OFFSET -0.060310 -0.090513 -0.013543
		CHANNELS 3 Zrotation Yrotation Xrotation
		JOINT rknee
		{
			OFFSET -0.043257 -0.383688 -0.004843
			CHANNELS 3 Zrotation Yrotation Xrotation
			JOINT rankle
			{
				OFFSET 0.019056 -0.420046 -0.034562
				CHANNELS 3 Zrotation Yrotation Xrotation
				JOINT rtoe
				{
					OFFSET -0.034840 -0.062106 0.130323
					CHANNELS 3 Zrotation Yrotation Xrotation
					End Site
					{
						OFFSET 0.000000 0.000000 0.000000
					}
				}
			}
		}
	}
	JOINT lowerback
	{
		OFFSET 0.004439 0.124404 -0.038385
		CHANNELS 3 Zrotation Yrotation Xrotation
		JOINT upperback
		{
			OFFSET 0.004488 0.137956 0.026820
			CHANNELS 3 Zrotation Yrotation Xrotation
			JOINT chest
			{
				OFFSET -0.002265 0.056032 0.002855
				CHANNELS 3 Zrotation Yrotation Xrotation
				JOINT lowerneck
				{
					OFFSET -0.013390 0.211636 -0.033468
					CHANNELS 3 Zrotation Yrotation Xrotation
					JOINT upperneck
					{
						OFFSET 0.010113 0.088937 0.050410
						CHANNELS 3 Zrotation Yrotation Xrotation
						End Site
						{
							OFFSET 0.000000 0.000000 0.000000
						}
					}
				}
				JOINT lclavicle
				{
					OFFSET 0.071702 0.114000 -0.018898
					CHANNELS 3 Zrotation Yrotation Xrotation
					JOINT lshoulder
					{
						OFFSET 0.122921 0.045205 -0.019046
						CHANNELS 3 Zrotation Yrotation Xrotation
						JOINT lelbow
						{
							OFFSET 0.255332 -0.015649 -0.022946
							CHANNELS 3 Zrotation Yrotation Xrotation
							JOINT lwrist
							{
								OFFSET 0.265709 0.012698 -0.007375
								CHANNELS 3 Zrotation Yrotation Xrotation
								End Site
								{
									OFFSET 0.000000 0.000000 0.000000
								}
							}
						}
					}
				}
				JOINT rclavicle
				{
					OFFSET -0.082954 0.112472 -0.023707
					CHANNELS 3 Zrotation Yrotation Xrotation
					JOINT rshoulder
					{
						OFFSET -0.113228 0.046853 -0.008472
						CHANNELS 3 Zrotation Yrotation Xrotation
						JOINT relbow
						{
							OFFSET -0.260127 -0.014369 -0.031269
							CHANNELS 3 Zrotation Yrotation Xrotation
							JOINT rwrist
							{
								OFFSET -0.269108 0.006794 -0.006027
								CHANNELS 3 Zrotation Yrotation Xrotation
								End Site
								{
									OFFSET 0.000000 0.000000 0.000000
								}
							}
						}
					}
				}
			}
		}
	}
}
MOTION
Frames: 16
Frame Time: 0.033333
0.386341 2.610657 1.002776 -1.835574 -0.047169 87.840706 -4.657678 -0.874956 -1.055359 -1.199867 -5.065094 6.167570 8.477561 13.379715 -21.608931 0.000000 -0.000000 0.000000 2.926070 -1.570398 -4.915761 -0.284751 -3.886351 12.064003 1.134001 -12.507393 -7.738881 0.000000 -0.000000 0.000000 -0.240530 1.319665 7.490563 0.152973 -1.303651 -2.383509 -0.072713 -1.390923 3.645090 -1.382663 -6.491247 -4.339534 1.575549 -10.148236 -3.311762 -17.561425 2.106279 5.147267 -57.080340 -4.586676 9.062114 7.089909 -32.513158 17.109144 -5.470365 -6.282586 -3.103900 19.728735 2.464341 0.140646 58.781730 3.514606 11.478806 -10.212663 24.751400 1.045146 6.182457 1.724777 -8.590123 
0.385062 2.611828 1.002533 -2.126566 -0.087943 87.768470 -4.762721 -0.917254 -1.186317 -1.173910 -5.317896 6.536113 8.628671 13.600580 -21.892735 0.000000 -0.000000 0.000000 2.856425 -1.708273 -4.881133 -0.116587 -3.697375 11.974830 1.260976 -12.183775 -7.654358 0.000000 -0.000000 0.000000 -0.216543 1.572607 7.568187 0.265570 -1.170015 -1.649828 0.113226 -1.314434 3.715415 -1.452486 -5.706667 -4.890895 1.369313 -9.345628 -3.679170 -17.745271 2.245491 4.743550 -57.134382 -4.652775 9.255784 6.738321 -33.471977 17.521584 -5.367008 -6.390280 -2.812642 19.883449 2.456059 0.188057 58.288738 3.859125 11.364738 -10.149704 24.978849 0.757525 6.220584 1.772876 -8.131798 
0.383969 2.612498 1.002710 -2.302563 -0.179588 87.702422 -4.745237 -0.839998 -1.172746 -1.230851 -5.304612 6.602765 8.747689 13.344793 -21.462379 0.000000 -0.000000 0.000000 2.728483 -1.703013 -4.826633 0.031366 -3.625425 11.991902 1.372604 -12.044573 -7.626875 0.000000 -0.000000 0.000000 -0.205850 1.651290 7.580248 0.276271 -1.035198 -1.179013 0.236833 -1.203637 4.177244 -1.437944 -5.001763 -5.610403 1.328125 -8.644287 -3.960269 -17.723909 2.564117 4.277593 -57.217421 -4.771173 9.481389 6.115065 -34.372076 18.471891 -5.447385 -6.489451 -2.556863 19.902682 2.322530 -0.140481 58.038950 4.009873 11.453440 -10.149827 25.233865 0.753205 6.327497 1.796079 -7.897259 
0.383001 2.612793 1.002213 -2.284093 -0.287124 87.672791 -4.647223 -0.622829 -1.156956 -1.243061 -5.065277 6.365398 8.942491 12.750125 -19.894577 0.000000 -0.000000 0.000000 2.596171 -1.737529 -4.837215 0.120031 -3.720469 12.067636 1.293102 -11.821625 -7.669992 0.000000 -0.000000 0.000000 -0.113928 1.577338 7.575806 0.358317 -1.050951 -0.868419 0.253662 -1.188225 4.230043 -1.542135 -4.331225 -5.100269 1.272033 -7.838171 -4.203150 -17.787501 2.671660 4.414477 -57.230778 -4.600555 9.639665 5.698514 -35.223438 19.134287 -5.497226 -6.540607 -2.492852 20.013100 2.317505 0.169250 57.882092 4.100764 11.426609 -10.345522 25.482931 0.584207 6.264976 1.814121 -7.881224 
0.382579 2.612710 1.001952 -2.141037 -0.361906 87.692492 -4.664801 -0.477426 -1.138540 -1.196422 -4.971145 6.175112 9.018877 12.448950 -19.233136 0.000000 -0.000000 0.000000 2.526912 -1.766601 -4.858806 0.113362 -3.812252 12.096071 1.287665 -11.760074 -7.726774 0.000000 -0.000000 0.000000 -0.046702 1.452856 7.777379 0.382877 -1.087931 -1.058860 0.263770 -1.280172 4.160835 -1.596912 -3.978637 -4.666346 1.206818 -7.387402 -4.203340 -17.890092 2.860504 4.532514 -57.206673 -4.389481 9.670966 5.431550 -35.456883 19.496473 -5.552533 -6.571767 -2.431806 20.124706 2.122594 0.336381 57.831579 4.018514 11.427586 -10.355086 25.658217 0.584666 6.225574 1.852379 -7.860303 
0.382218 2.612425 1.001476 -1.910995 -0.459227 87.592126 -4.745444 -0.424304 -0.924552 -1.154739 -5.009251 5.920140 9.025420 12.240251 -18.886975 0.000000 -0.000000 0.000000 2.458023 -1.760728 -4.723811 0.085406 -3.868242 12.088106 1.184736 -11.867137 -7.817857 0.000000 -0.000000 0.000000 0.037792 1.283559 7.456220 0.453419 -1.301535 -0.466194 0.235722 -1.318073 4.350450 -1.632685 -3.493826 -4.387514 1.106620 -6.844329 -4.245257 -17.881009 2.694895 4.678470 -57.388495 -4.448691 9.674080 5.463243 -35.315674 19.502243 -5.694721 -6.562906 -2.609726 20.126425 2.165969 0.467322 57.934929 4.181980 11.402867 -10.491537 25.756925 0.439559 6.305123 1.816442 -8.051303 
0.381956 2.611837 1.001174 -1.738467 -0.531792 87.616560 -4.793125 -0.425746 -0.835580 -1.168405 -5.140655 5.700310 9.025398 12.125719 -18.681392 0.000000 -0.000000 0.000000 2.420926 -1.725762 -4.717642 0.055440 -3.914295 12.089556 1.127579 -11.980420 -7.905595 0.000000 -0.000000 0.000000 0.135533 1.157418 7.337908 0.510922 -1.404558 -0.315388 0.243841 -1.412958 4.407662 -1.654651 -3.032987 -4.165024 0.974665 -6.334508 -4.119730 -17.916263 2.630804 4.777015 -57.565248 -4.369257 9.703490 5.422169 -34.868579 19.628277 -5.803817 -6.555213 -2.654637 20.140272 2.018217 0.602998 58.001727 4.115816 11.433718 -10.510846 25.831063 0.468286 6.309151 1.856258 -8.186954 
0.381724 2.611324 1.000954 -1.660194 -0.605120 87.681322 -4.849470 -0.393510 -0.759199 -1.167703 -5.224998 5.431696 9.044430 11.994922 -18.485221 0.000000 -0.000000 0.000000 2.343145 -1.718231 -4.761656 0.071628 -3.955680 12.107445 1.135849 -11.983118 -7.976033 0.000000 -0.000000 0.000000 0.201692 1.114083 7.422215 0.567962 -1.407389 -0.385821 0.288345 -1.544760 4.289110 -1.646343 -2.708452 -3.965736 0.859211 -5.950416 -3.992797 -18.036196 2.654322 4.870289 -57.655917 -4.212044 9.751217 5.327386 -34.302394 19.786882 -5.930408 -6.562487 -2.566488 20.231131 1.796762 0.791436 57.973745 3.942856 11.479102 -10.441444 25.766307 0.574961 6.357577 1.897993 -8.180855 
0.381563 2.610661 1.000227 -1.699624 -0.630181 87.621997 -4.896934 -0.383470 -0.512204 -1.115444 -5.286089 5.093333 9.019112 12.002259 -18.334342 0.000000 -0.000000 0.000000 2.314804 -1.752890 -4.664599 0.111520 -3.863704 12.054511 1.059326 -11.992010 -7.990718 0.000000 -0.000000 0.000000 0.305904 1.083599 7.004667 0.627004 -1.526306 0.303230 0.275940 -1.479958 4.540055 -1.611519 -2.374447 -4.209992 0.805288 -5.674662 -4.006785 -18.001509 2.306052 4.905396 -57.819113 -4.394084 9.757103 5.460249 -33.736769 19.532491 -6.033098 -6.485254 -2.763551 20.207081 2.021867 0.878684 58.059923 4.154778 11.446482 -10.451412 25.387928 0.472293 6.509593 1.846107 -8.296315 
0.381291 2.609843 1.000130 -1.827610 -0.677368 87.752548 -4.930419 -0.357172 -0.489478 -1.095874 -5.264506 4.866917 9.023416 12.003616 -18.240257 0.000000 -0.000000 0.000000 2.294364 -1.693293 -4.764605 0.085266 -3.867393 12.048440 1.037650 -11.918157 -8.004874 0.000000 -0.000000 0.000000 0.428966 0.935016 7.000964 0.612778 -1.585056 0.088423 0.205530 -1.293741 4.566976 -1.589798 -1.939329 -3.888592 0.790818 -5.296284 -3.970234 -18.073026 2.300626 5.076299 -57.769833 -4.189454 9.750868 5.450516 -33.286059 19.512863 -6.138497 -6.424761 -2.769005 20.474867 2.065313 1.165168 58.039485 4.018137 11.453382 -10.406160 24.832548 0.484687 6.529319 1.820883 -8.319707 
0.381055 2.609262 0.999451 -1.918779 -0.663660 87.842313 -4.892187 -0.420042 -0.500495 -1.103882 -5.219301 4.723892 9.024014 11.982540 -18.152220 0.000000 -0.000000 0.000000 2.339572 -1.644586 -4.858917 0.047567 -3.950927 12.039532 0.914568 -11.786891 -8.020757 0.000000 -0.000000 0.000000 0.479569 0.938341 7.111395 0.713406 -1.539703 -0.141099 0.229881 -1.306284 4.101301 -1.651598 -1.696968 -2.688277 0.725186 -4.970859 -3.863616 -18.228095 1.893304 5.727951 -57.743159 -3.910089 9.719769 5.831966 -33.007437 19.025098 -6.175885 -6.423421 -2.956370 20.628273 2.293460 1.927941 58.054204 3.855338 11.352804 -10.548052 24.356213 0.330557 6.485122 1.745833 -8.595893 
0.380723 2.608495 0.998612 -2.012864 -0.617320 87.928075 -4.850435 -0.412696 -0.464149 -1.061822 -5.280240 4.491195 8.961207 12.004096 -18.031237 0.000000 -0.000000 0.000000 2.454183 -1.663380 -4.968198 -0.008124 -3.914312 12.047850 0.862911 -11.706688 -8.025185 0.000000 -0.000000 0.000000 0.515892 0.972121 7.368261 0.805538 -1.399059 -0.421032 0.332799 -1.440819 3.749307 -1.678829 -1.577141 -2.195777 0.605234 -4.813654 -3.729054 -18.412126 1.750676 6.030223 -57.668418 -3.701369 9.667207 5.981513 -32.850545 18.733081 -6.108781 -6.516580 -3.069416 20.719174 2.288685 2.315523 58.032467 3.742485 11.265009 -10.473252 24.017047 0.291231 6.404263 1.751366 -8.619168 
0.380250 2.607756 0.998607 -2.068090 -0.632340 88.048520 -4.871373 -0.321664 -0.455378 -1.004608 -5.371795 4.311281 8.903529 12.020754 -17.986975 0.000000 -0.000000 0.000000 2.508031 -1.640089 -5.102283 -0.065416 -3.860231 12.119430 0.995033 -11.719378 -8.066779 0.000000 -0.000000 0.000000 0.489492 0.931748 7.837996 0.779936 -1.253850 -0.978035 0.416971 -1.540944 3.744207 -1.598341 -1.382705 -2.603961 0.603935 -4.701609 -3.667152 -18.565643 2.191100 5.764505 -57.445969 -3.576558 9.635632 5.703531 -32.843545 18.961555 -6.043116 -6.602247 -2.801076 20.946298 1.855192 2.045612 57.898629 3.532249 11.351240 -10.200107 23.965457 0.455444 6.393648 1.832548 -8.310534 
0.379722 2.607108 0.998533 -2.110704 -0.675955 87.984574 -4.909454 -0.324441 -0.276441 -0.974708 -5.416414 4.182302 8.864460 12.101469 -17.977860 0.000000 -0.000000 0.000000 2.508322 -1.594531 -5.066289 -0.052439 -3.718069 12.257033 0.974631 -11.877161 -8.154420 0.000000 -0.000000 0.000000 0.391784 0.914983 7.468999 0.793644 -1.352782 -0.274504 0.419975 -1.479705 4.186663 -1.492542 -1.116679 -3.420317 0.651506 -4.609806 -3.785557 -18.465037 2.149548 5.437717 -57.425947 -3.941339 9.584654 5.750868 -32.850257 18.814153 -6.060225 -6.560575 -2.814899 20.977551 1.920015 1.666362 57.967315 3.760634 11.440674 -10.228763 23.986639 0.417930 6.581568 1.784136 -8.242880 
0.379300 2.606335 0.998354 -2.173815 -0.710994 87.890688 -4.911252 -0.349770 -0.084954 -0.975248 -5.406298 4.094869 8.813762 12.154672 -17.995342 0.000000 -0.000000 0.000000 2.486591 -1.545655 -5.019959 -0.005750 -3.618956 12.441548 0.906625 -12.012205 -8.267217 0.000000 -0.000000 0.000000 0.372246 0.849022 6.909993 0.762999 -1.540438 0.666609 0.323619 -1.336642 4.785093 -1.342255 -0.806440 -4.504265 0.679544 -4.533627 -3.821785 -18.263863 1.970921 5.087185 -57.461776 -4.395005 9.575460 5.922747 -32.944926 18.517091 -6.024775 -6.534213 -3.033577 20.904844 2.148735 1.250006 58.109794 4.089972 11.597675 -10.347961 24.141026 0.354152 6.745321 1.789495 -8.314792 
0.378705 2.605498 0.998419 -2.250061 -0.739327 87.993404 -4.904469 -0.281826 -0.138303 -0.958090 -5.384206 4.104915 8.800137 12.129594 -18.061310 0.000000 -0.000000 0.000000 2.492085 -1.489966 -5.161075 -0.019935 -3.642794 12.608817 0.991111 -11.981681 -8.357318 0.000000 -0.000000 0.000000 0.353526 0.786351 7.192593 0.693584 -1.482267 0.288784 0.314267 -1.372145 4.863864 -1.255518 -0.617512 -4.912271 0.718977 -4.415054 -3.739269 -18.319150 2.219252 4.861463 -57.294878 -4.359946 9.569391 5.787360 -33.149461 18.634187 -5.896555 -6.561540 -2.876562 20.991260 1.900738 1.037767 58.056862 3.934299 11.742528 -10.238222 24.521476 0.510689 6.688309 1.911052 -8.195082 
